<mxfile host="app.diagrams.net" modified="2022-10-18T17:58:21.135Z" agent="5.0 (Windows NT 10.0; Win64; x64) AppleWebKit/537.36 (KHTML, like Gecko) Chrome/106.0.0.0 Safari/537.36" etag="OuvlHdua6jXeK1HsECrs" version="20.4.1" type="github">
  <diagram id="83VoR7YyrFdMEJbiMuqo" name="Page-1">
    <mxGraphModel dx="1497" dy="846" grid="1" gridSize="10" guides="1" tooltips="1" connect="1" arrows="1" fold="1" page="1" pageScale="1" pageWidth="1169" pageHeight="827" math="0" shadow="0">
      <root>
        <mxCell id="0" />
        <mxCell id="1" parent="0" />
        <mxCell id="5SPhWqK9Z4W-FWPL_8hO-26" style="edgeStyle=orthogonalEdgeStyle;rounded=0;orthogonalLoop=1;jettySize=auto;html=1;entryX=0;entryY=0.5;entryDx=0;entryDy=0;strokeWidth=2;fontFamily=Verdana;fontStyle=1;fontSize=11;spacingTop=0;spacingLeft=0;spacing=5;" edge="1" parent="1">
          <mxGeometry relative="1" as="geometry">
            <mxPoint x="200" y="220" as="sourcePoint" />
            <mxPoint x="274.1975308641976" y="354.7692307692308" as="targetPoint" />
            <Array as="points">
              <mxPoint x="203.82716049382717" y="354.7692307692308" />
            </Array>
          </mxGeometry>
        </mxCell>
        <mxCell id="5SPhWqK9Z4W-FWPL_8hO-1" value="Page Loads" style="rounded=1;whiteSpace=wrap;html=1;fontFamily=Verdana;fontSize=11;fontColor=default;align=center;strokeColor=#d6b656;strokeWidth=2;fillColor=#fff2cc;container=0;arcSize=34;" vertex="1" parent="1">
          <mxGeometry x="110" y="169.5" width="100" height="57.31" as="geometry" />
        </mxCell>
        <mxCell id="5SPhWqK9Z4W-FWPL_8hO-40" style="edgeStyle=orthogonalEdgeStyle;rounded=0;orthogonalLoop=1;jettySize=auto;html=1;exitX=1;exitY=0.75;exitDx=0;exitDy=0;strokeWidth=2;fontFamily=Verdana;fontSize=13;fontColor=#FF6666;" edge="1" parent="1" source="5SPhWqK9Z4W-FWPL_8hO-2">
          <mxGeometry relative="1" as="geometry">
            <mxPoint x="440" y="350" as="targetPoint" />
            <Array as="points">
              <mxPoint x="440" y="218" />
            </Array>
          </mxGeometry>
        </mxCell>
        <mxCell id="5SPhWqK9Z4W-FWPL_8hO-2" value="Get current Location coordinates" style="rounded=0;whiteSpace=wrap;html=1;fillColor=#f8cecc;strokeColor=#b85450;strokeWidth=2;container=0;fontFamily=Verdana;fontStyle=1;fontSize=11;spacingTop=0;spacingLeft=0;spacing=5;" vertex="1" parent="1">
          <mxGeometry x="274.1975308641976" y="159" width="140.74074074074076" height="78.3076923076923" as="geometry" />
        </mxCell>
        <mxCell id="5SPhWqK9Z4W-FWPL_8hO-3" value="" style="edgeStyle=orthogonalEdgeStyle;rounded=0;orthogonalLoop=1;jettySize=auto;html=1;strokeWidth=2;fontFamily=Verdana;fontStyle=1;fontSize=11;spacingTop=0;spacingLeft=0;spacing=5;" edge="1" parent="1" source="5SPhWqK9Z4W-FWPL_8hO-1" target="5SPhWqK9Z4W-FWPL_8hO-2">
          <mxGeometry relative="1" as="geometry" />
        </mxCell>
        <mxCell id="5SPhWqK9Z4W-FWPL_8hO-12" value="" style="edgeStyle=orthogonalEdgeStyle;rounded=0;orthogonalLoop=1;jettySize=auto;html=1;dashed=1;strokeWidth=2;fontFamily=Verdana;fontStyle=1;fontSize=11;spacingTop=0;spacingLeft=0;spacing=5;" edge="1" parent="1" source="5SPhWqK9Z4W-FWPL_8hO-6">
          <mxGeometry relative="1" as="geometry">
            <mxPoint x="719.8765432098766" y="198.15384615384616" as="targetPoint" />
          </mxGeometry>
        </mxCell>
        <mxCell id="5SPhWqK9Z4W-FWPL_8hO-6" value="Render map on current Location" style="rounded=0;whiteSpace=wrap;html=1;fillColor=#d5e8d4;strokeColor=#82b366;strokeWidth=2;container=0;fontFamily=Verdana;fontStyle=1;fontSize=11;spacingTop=0;spacingLeft=0;spacing=5;" vertex="1" parent="1">
          <mxGeometry x="485.30864197530866" y="159" width="140.74074074074076" height="78.3076923076923" as="geometry" />
        </mxCell>
        <mxCell id="5SPhWqK9Z4W-FWPL_8hO-7" value="" style="edgeStyle=orthogonalEdgeStyle;rounded=0;orthogonalLoop=1;jettySize=auto;html=1;strokeWidth=2;fontFamily=Verdana;fontStyle=1;fontSize=11;spacingTop=0;spacingLeft=0;spacing=5;" edge="1" parent="1" source="5SPhWqK9Z4W-FWPL_8hO-2" target="5SPhWqK9Z4W-FWPL_8hO-6">
          <mxGeometry relative="1" as="geometry" />
        </mxCell>
        <mxCell id="5SPhWqK9Z4W-FWPL_8hO-8" value="User submits preferences and submit them" style="rounded=1;whiteSpace=wrap;html=1;fontFamily=Verdana;fontSize=11;fontColor=default;align=center;strokeColor=#d6b656;strokeWidth=2;fillColor=#fff2cc;container=0;arcSize=30;" vertex="1" parent="1">
          <mxGeometry x="719.8765432098766" y="159" width="117.28395061728396" height="78.3076923076923" as="geometry" />
        </mxCell>
        <mxCell id="5SPhWqK9Z4W-FWPL_8hO-14" value="Render all Restaurants" style="rounded=0;whiteSpace=wrap;html=1;fillColor=#d5e8d4;strokeColor=#82b366;strokeWidth=2;container=0;fontFamily=Verdana;fontStyle=1;fontSize=11;spacingTop=0;spacingLeft=0;spacing=5;" vertex="1" parent="1">
          <mxGeometry x="919.2592592592594" y="159" width="140.74074074074076" height="78.3076923076923" as="geometry" />
        </mxCell>
        <mxCell id="5SPhWqK9Z4W-FWPL_8hO-15" value="" style="edgeStyle=orthogonalEdgeStyle;rounded=0;orthogonalLoop=1;jettySize=auto;html=1;strokeWidth=2;fontFamily=Verdana;fontStyle=1;fontSize=11;spacingTop=0;spacingLeft=0;spacing=5;" edge="1" parent="1" source="5SPhWqK9Z4W-FWPL_8hO-8" target="5SPhWqK9Z4W-FWPL_8hO-14">
          <mxGeometry relative="1" as="geometry" />
        </mxCell>
        <mxCell id="5SPhWqK9Z4W-FWPL_8hO-23" style="edgeStyle=orthogonalEdgeStyle;rounded=0;orthogonalLoop=1;jettySize=auto;html=1;entryX=1;entryY=0.5;entryDx=0;entryDy=0;strokeWidth=2;fontFamily=Verdana;fontStyle=1;fontSize=11;spacingTop=0;spacingLeft=0;spacing=5;" edge="1" parent="1" source="5SPhWqK9Z4W-FWPL_8hO-16">
          <mxGeometry relative="1" as="geometry">
            <mxPoint x="860.6172839506173" y="615.7948717948718" as="targetPoint" />
            <Array as="points">
              <mxPoint x="910" y="500" />
              <mxPoint x="910" y="616" />
            </Array>
          </mxGeometry>
        </mxCell>
        <mxCell id="5SPhWqK9Z4W-FWPL_8hO-16" value="User submits preferences and submit them" style="rounded=1;whiteSpace=wrap;html=1;fontFamily=Verdana;fontSize=11;fontColor=default;align=center;strokeColor=#d6b656;strokeWidth=2;fillColor=#fff2cc;container=0;arcSize=31;" vertex="1" parent="1">
          <mxGeometry x="930.9876543209878" y="446.12820512820514" width="117.28395061728396" height="78.3076923076923" as="geometry" />
        </mxCell>
        <mxCell id="5SPhWqK9Z4W-FWPL_8hO-24" style="edgeStyle=orthogonalEdgeStyle;rounded=0;orthogonalLoop=1;jettySize=auto;html=1;dashed=1;strokeWidth=2;fontFamily=Verdana;fontStyle=1;fontSize=11;spacingTop=0;spacingLeft=0;spacing=5;" edge="1" parent="1" source="5SPhWqK9Z4W-FWPL_8hO-14" target="5SPhWqK9Z4W-FWPL_8hO-16">
          <mxGeometry relative="1" as="geometry" />
        </mxCell>
        <mxCell id="5SPhWqK9Z4W-FWPL_8hO-17" value="Render new Restaurants" style="rounded=0;whiteSpace=wrap;html=1;fillColor=#d5e8d4;strokeColor=#82b366;strokeWidth=2;container=0;fontFamily=Verdana;fontStyle=1;fontSize=11;spacingTop=0;spacingLeft=0;spacing=5;" vertex="1" parent="1">
          <mxGeometry x="719.8765432098766" y="315.61538461538464" width="140.74074074074076" height="78.3076923076923" as="geometry" />
        </mxCell>
        <mxCell id="5SPhWqK9Z4W-FWPL_8hO-21" style="edgeStyle=orthogonalEdgeStyle;rounded=0;orthogonalLoop=1;jettySize=auto;html=1;entryX=1;entryY=0.5;entryDx=0;entryDy=0;strokeWidth=2;fontFamily=Verdana;fontStyle=1;fontSize=11;spacingTop=0;spacingLeft=0;spacing=5;" edge="1" parent="1" source="5SPhWqK9Z4W-FWPL_8hO-16" target="5SPhWqK9Z4W-FWPL_8hO-17">
          <mxGeometry relative="1" as="geometry">
            <Array as="points">
              <mxPoint x="910" y="470" />
              <mxPoint x="910" y="355" />
            </Array>
          </mxGeometry>
        </mxCell>
        <mxCell id="5SPhWqK9Z4W-FWPL_8hO-18" value="Render Restaurants in list" style="rounded=0;whiteSpace=wrap;html=1;fillColor=#d5e8d4;strokeColor=#82b366;strokeWidth=2;container=0;fontFamily=Verdana;fontStyle=1;fontSize=11;spacingTop=0;spacingLeft=0;spacing=5;" vertex="1" parent="1">
          <mxGeometry x="719.8765432098766" y="446.12820512820514" width="140.74074074074076" height="78.3076923076923" as="geometry" />
        </mxCell>
        <mxCell id="5SPhWqK9Z4W-FWPL_8hO-22" value="" style="edgeStyle=orthogonalEdgeStyle;rounded=0;orthogonalLoop=1;jettySize=auto;html=1;strokeWidth=2;fontFamily=Verdana;fontStyle=1;fontSize=11;spacingTop=0;spacingLeft=0;spacing=5;" edge="1" parent="1" source="5SPhWqK9Z4W-FWPL_8hO-16" target="5SPhWqK9Z4W-FWPL_8hO-18">
          <mxGeometry relative="1" as="geometry" />
        </mxCell>
        <mxCell id="5SPhWqK9Z4W-FWPL_8hO-29" style="edgeStyle=orthogonalEdgeStyle;rounded=0;orthogonalLoop=1;jettySize=auto;html=1;entryX=0;entryY=0.25;entryDx=0;entryDy=0;strokeWidth=2;fontFamily=Verdana;fontStyle=1;fontSize=11;spacingTop=0;spacingLeft=0;spacing=5;" edge="1" parent="1" target="5SPhWqK9Z4W-FWPL_8hO-18">
          <mxGeometry relative="1" as="geometry">
            <mxPoint x="414.9382716049383" y="380.8717948717949" as="sourcePoint" />
            <Array as="points">
              <mxPoint x="626.0493827160494" y="380.8717948717949" />
              <mxPoint x="626.0493827160494" y="465.70512820512823" />
            </Array>
          </mxGeometry>
        </mxCell>
        <mxCell id="5SPhWqK9Z4W-FWPL_8hO-27" value="Move map to restaurant location" style="rounded=0;whiteSpace=wrap;html=1;fillColor=#d5e8d4;strokeColor=#82b366;strokeWidth=2;container=0;fontFamily=Verdana;fontStyle=1;fontSize=11;spacingTop=0;spacingLeft=0;spacing=5;" vertex="1" parent="1">
          <mxGeometry x="274.1975308641976" y="511.3846153846154" width="140.74074074074076" height="78.3076923076923" as="geometry" />
        </mxCell>
        <mxCell id="5SPhWqK9Z4W-FWPL_8hO-32" value="" style="edgeStyle=orthogonalEdgeStyle;rounded=0;orthogonalLoop=1;jettySize=auto;html=1;strokeWidth=2;fontFamily=Verdana;fontStyle=1;fontSize=11;spacingTop=0;spacingLeft=0;spacing=5;" edge="1" parent="1" source="5SPhWqK9Z4W-FWPL_8hO-30" target="5SPhWqK9Z4W-FWPL_8hO-27">
          <mxGeometry relative="1" as="geometry">
            <Array as="points">
              <mxPoint x="450.1234567901235" y="524.4358974358975" />
              <mxPoint x="450.1234567901235" y="550.5384615384615" />
            </Array>
          </mxGeometry>
        </mxCell>
        <mxCell id="5SPhWqK9Z4W-FWPL_8hO-30" value="User clicks on restaurant in list" style="rounded=1;whiteSpace=wrap;html=1;fontFamily=Verdana;fontSize=11;fontColor=default;align=center;strokeColor=#d6b656;strokeWidth=2;fillColor=#fff2cc;container=0;arcSize=37;" vertex="1" parent="1">
          <mxGeometry x="485.30864197530866" y="485.28205128205127" width="117.28395061728396" height="78.3076923076923" as="geometry" />
        </mxCell>
        <mxCell id="5SPhWqK9Z4W-FWPL_8hO-31" style="edgeStyle=orthogonalEdgeStyle;rounded=0;orthogonalLoop=1;jettySize=auto;html=1;dashed=1;strokeWidth=2;fontFamily=Verdana;fontStyle=1;fontSize=11;spacingTop=0;spacingLeft=0;spacing=5;" edge="1" parent="1" source="5SPhWqK9Z4W-FWPL_8hO-18" target="5SPhWqK9Z4W-FWPL_8hO-30">
          <mxGeometry relative="1" as="geometry">
            <Array as="points">
              <mxPoint x="661.2345679012346" y="498.3333333333333" />
              <mxPoint x="661.2345679012346" y="524.4358974358975" />
            </Array>
          </mxGeometry>
        </mxCell>
        <mxCell id="5SPhWqK9Z4W-FWPL_8hO-33" value="Store the Restaurants in Local storage" style="shape=cube;whiteSpace=wrap;html=1;boundedLbl=1;backgroundOutline=1;darkOpacity=0.05;darkOpacity2=0.1;fillColor=#dae8fc;strokeColor=#6c8ebf;strokeWidth=2;container=0;fontFamily=Verdana;fontStyle=1;fontSize=11;spacingTop=0;spacingLeft=0;spacing=5;" vertex="1" parent="1">
          <mxGeometry x="719.8765432098766" y="576.6410256410256" width="140.74074074074076" height="91.35897435897436" as="geometry" />
        </mxCell>
        <mxCell id="5SPhWqK9Z4W-FWPL_8hO-42" style="edgeStyle=orthogonalEdgeStyle;rounded=0;orthogonalLoop=1;jettySize=auto;html=1;strokeWidth=2;fontFamily=Verdana;fontSize=13;fontColor=#FF6666;entryX=0.001;entryY=0.439;entryDx=0;entryDy=0;entryPerimeter=0;" edge="1" parent="1" source="5SPhWqK9Z4W-FWPL_8hO-35" target="5SPhWqK9Z4W-FWPL_8hO-17">
          <mxGeometry relative="1" as="geometry">
            <mxPoint x="610" y="350" as="targetPoint" />
            <Array as="points">
              <mxPoint x="520" y="350" />
              <mxPoint x="520" y="350" />
            </Array>
          </mxGeometry>
        </mxCell>
        <mxCell id="5SPhWqK9Z4W-FWPL_8hO-35" value="Load restaurants from Local storage" style="shape=cube;whiteSpace=wrap;html=1;boundedLbl=1;backgroundOutline=1;darkOpacity=0.05;darkOpacity2=0.1;fillColor=#dae8fc;strokeColor=#6c8ebf;strokeWidth=2;container=0;fontFamily=Verdana;fontStyle=1;fontSize=11;spacingTop=0;spacingLeft=0;spacing=5;" vertex="1" parent="1">
          <mxGeometry x="274.1975308641976" y="302.56410256410254" width="140.74074074074076" height="104.41025641025641" as="geometry" />
        </mxCell>
        <mxCell id="5SPhWqK9Z4W-FWPL_8hO-39" value="&lt;b&gt;&lt;font color=&quot;#ff6666&quot; style=&quot;font-size: 13px;&quot;&gt;ASYNC&lt;/font&gt;&lt;/b&gt;" style="text;html=1;align=center;verticalAlign=middle;resizable=0;points=[];autosize=1;strokeColor=none;fillColor=none;fontSize=11;fontFamily=Verdana;strokeWidth=2;" vertex="1" parent="1">
          <mxGeometry x="309.57" y="125" width="70" height="30" as="geometry" />
        </mxCell>
        <mxCell id="5SPhWqK9Z4W-FWPL_8hO-43" value="&lt;b style=&quot;font-size: 10px;&quot;&gt;&lt;font color=&quot;#ff6666&quot; style=&quot;font-size: 10px;&quot;&gt;After map loaded&lt;/font&gt;&lt;/b&gt;" style="text;html=1;align=center;verticalAlign=middle;resizable=0;points=[];autosize=1;strokeColor=none;fillColor=none;fontSize=10;fontFamily=Verdana;strokeWidth=2;" vertex="1" parent="1">
          <mxGeometry x="440" y="270" width="120" height="30" as="geometry" />
        </mxCell>
        <mxCell id="5SPhWqK9Z4W-FWPL_8hO-44" value="&lt;font color=&quot;#000000&quot;&gt;Many&lt;/font&gt;" style="text;html=1;align=center;verticalAlign=middle;resizable=0;points=[];autosize=1;strokeColor=none;fillColor=none;fontSize=10;fontFamily=Verdana;fontColor=#FF6666;strokeWidth=2;" vertex="1" parent="1">
          <mxGeometry x="329.57" y="399" width="50" height="30" as="geometry" />
        </mxCell>
        <mxCell id="5SPhWqK9Z4W-FWPL_8hO-45" value="&lt;font color=&quot;#000000&quot;&gt;Bind handler&lt;/font&gt;" style="text;html=1;align=center;verticalAlign=middle;resizable=0;points=[];autosize=1;strokeColor=none;fillColor=none;fontSize=10;fontFamily=Verdana;fontColor=#FF6666;fontStyle=1;strokeWidth=2;" vertex="1" parent="1">
          <mxGeometry x="615" y="520" width="100" height="30" as="geometry" />
        </mxCell>
        <mxCell id="5SPhWqK9Z4W-FWPL_8hO-46" value="&lt;font color=&quot;#000000&quot;&gt;Bind handler&lt;/font&gt;" style="text;html=1;align=center;verticalAlign=middle;resizable=0;points=[];autosize=1;strokeColor=none;fillColor=none;fontSize=10;fontFamily=Verdana;fontColor=#FF6666;fontStyle=1;strokeWidth=2;" vertex="1" parent="1">
          <mxGeometry x="621.05" y="170" width="100" height="30" as="geometry" />
        </mxCell>
        <mxCell id="5SPhWqK9Z4W-FWPL_8hO-47" value="&lt;font color=&quot;#000000&quot;&gt;Bind handler&lt;/font&gt;" style="text;html=1;align=center;verticalAlign=middle;resizable=0;points=[];autosize=1;strokeColor=none;fillColor=none;fontSize=10;fontFamily=Verdana;fontColor=#FF6666;fontStyle=1;strokeWidth=2;" vertex="1" parent="1">
          <mxGeometry x="985" y="330" width="100" height="30" as="geometry" />
        </mxCell>
        <mxCell id="5SPhWqK9Z4W-FWPL_8hO-48" value="&lt;h1&gt;&lt;font style=&quot;font-size: 51px;&quot; face=&quot;Garamond&quot;&gt;Flowchart&lt;/font&gt;&lt;/h1&gt;" style="text;html=1;align=center;verticalAlign=middle;resizable=0;points=[];autosize=1;strokeColor=none;fillColor=none;fontSize=10;fontFamily=Verdana;fontColor=#000000;" vertex="1" parent="1">
          <mxGeometry x="464" y="10" width="240" height="100" as="geometry" />
        </mxCell>
        <mxCell id="5SPhWqK9Z4W-FWPL_8hO-49" value="&lt;font color=&quot;#000000&quot;&gt;Many&lt;/font&gt;" style="text;html=1;align=center;verticalAlign=middle;resizable=0;points=[];autosize=1;strokeColor=none;fillColor=none;fontSize=10;fontFamily=Verdana;fontColor=#FF6666;strokeWidth=2;" vertex="1" parent="1">
          <mxGeometry x="780" y="660" width="50" height="30" as="geometry" />
        </mxCell>
      </root>
    </mxGraphModel>
  </diagram>
</mxfile>
